<!--?xml version="1.0" standalone="no"?-->
              <svg id="sw-js-blob-svg" viewBox="0 0 100 100" xmlns="http://www.w3.org/2000/svg" version="1.1">
                    <defs> 
                        <linearGradient id="sw-gradient" x1="0" x2="1" y1="1" y2="0">
                            <stop id="stop1" stop-color="rgba(248, 117, 55, 1)" offset="0%"></stop>
                            <stop id="stop2" stop-color="rgba(251, 168, 31, 1)" offset="100%"></stop>
                        </linearGradient>
                    </defs>
                <path fill="url(#sw-gradient)" d="M8.4,-10.9C8.5,-9.8,4.8,-5,8.4,0.7C12.1,6.5,23.1,13.1,23.9,15.7C24.7,18.3,15.1,16.8,9.2,14.1C3.3,11.4,1,7.4,-7,8.9C-15,10.5,-28.8,17.5,-36.4,15.6C-43.9,13.7,-45.2,2.7,-38.4,-1.7C-31.6,-6.2,-16.8,-4.3,-9,-4C-1.3,-3.8,-0.7,-5.3,1.7,-7.3C4.1,-9.4,8.2,-12,8.4,-10.9Z" width="100%" height="100%" transform="translate(50 50)" stroke-width="0" style="transition: 0.3s;"></path>
              </svg>